<?xml version="1.0"?>
<svg width="1792" height="1792" xmlns="http://www.w3.org/2000/svg" xmlns:svg="http://www.w3.org/2000/svg">
 <metadata id="metadata3035">image/svg+xml</metadata>

 <g>
  <title>Layer 1</title>
  <g id="g3027" transform="matrix(1,0,0,-1,53.152542,1270.2373) ">
   <path fill="#f5f5f2" id="path3029" d="m1656,786q40,-57 18,-129l-275,-906q-19,-64 -76.5,-107.5q-57.5,-43.5 -122.5,-43.5l-923,0q-77,0 -148.5,53.5q-71.5,53.5 -99.5,131.5q-24,67 -2,127q0,4 3,27q3,23 4,37q1,8 -3,21.5q-4,13.5 -3,19.5q2,11 8,21q6,10 16.5,23.5q10.5,13.5 16.5,23.5q23,38 45,91.5q22,53.5 30,91.5q3,10 0.5,30q-2.5,20 -0.5,28q3,11 17,28q14,17 17,23q21,36 42,92q21,56 25,90q1,9 -2.5,32q-3.5,23 0.5,28q4,13 22,30.5q18,17.5 22,22.5q19,26 42.5,84.5q23.5,58.5 27.5,96.5q1,8 -3,25.5q-4,17.5 -2,26.5q2,8 9,18q7,10 18,23q11,13 17,21q8,12 16.5,30.5q8.5,18.5 15,35q6.5,16.5 16,36q9.5,19.5 19.5,32q10,12.5 26.5,23.5q16.5,11 36,11.5q19.5,0.5 47.5,-5.5l-1,-3q38,9 51,9l761,0q74,0 114,-56q40,-56 18,-130l-274,-906q-36,-119 -71.5,-153.5q-35.5,-34.5 -128.5,-34.5l-869,0q-27,0 -38,-15q-11,-16 -1,-43q24,-70 144,-70l923,0q29,0 56,15.5q27,15.5 35,41.5l300,987q7,22 5,57q38,-15 59,-43zm-1064,-2q-4,-13 2,-22.5q6,-9.5 20,-9.5l608,0q13,0 25.5,9.5q12.5,9.5 16.5,22.5l21,64q4,13 -2,22.5q-6,9.5 -20,9.5l-608,0q-13,0 -25.5,-9.5q-12.5,-9.5 -16.5,-22.5l-21,-64zm-104,-320q-4,-13 2,-22.5q6,-9.5 20,-9.5l608,0q13,0 25.5,9.5q12.5,9.5 16.5,22.5l21,64q4,13 -2,22.5q-6,9.5 -20,9.5l-587,0q-13,0 -25.5,-9.5q-12.5,54.5 -16.5,41.5l-42,-128z"/>
  </g>
 </g>
</svg>